<?xml version="1.0" standalone="no"?><!-- Generator: Gravit.io --><svg xmlns="http://www.w3.org/2000/svg" xmlns:xlink="http://www.w3.org/1999/xlink" style="isolation:isolate" viewBox="0 0 200 200" width="200" height="200"><defs><clipPath id="_clipPath_VijqthS26oRx5NNXiwQJjX6CXJOXDS8p"><rect width="200" height="200"/></clipPath></defs><g clip-path="url(#_clipPath_VijqthS26oRx5NNXiwQJjX6CXJOXDS8p)"><g opacity="0.6"><path d=" M 49.587 39.595 C 50.581 39.204 51.694 39 52.826 39 C 53.957 39 55.071 39.205 56.064 39.595 L 60.966 41.52 L 66.509 42.03 C 67.632 42.133 68.701 42.437 69.617 42.915 C 70.531 43.392 71.266 44.027 71.75 44.761 L 74.138 48.387 L 78.206 51.138 C 79.029 51.696 79.646 52.393 79.996 53.165 C 80.345 53.937 80.418 54.76 80.208 55.559 L 79.171 59.5 L 80.208 63.441 C 80.418 64.239 80.345 65.062 79.996 65.835 C 79.646 66.607 79.03 67.304 78.206 67.861 L 74.138 70.612 L 71.75 74.238 C 71.266 74.972 70.532 75.607 69.617 76.084 C 68.703 76.562 67.633 76.866 66.509 76.969 L 60.966 77.479 L 56.064 79.405 C 55.07 79.795 53.958 80 52.826 80 C 51.694 80 50.58 79.795 49.587 79.405 L 44.685 77.479 L 39.14 76.969 C 38.018 76.866 36.949 76.562 36.034 76.084 C 35.117 75.607 34.384 74.972 33.9 74.238 L 31.512 70.612 L 27.444 67.861 C 26.621 67.303 26.004 66.606 25.655 65.834 C 25.306 65.062 25.233 64.239 25.443 63.441 L 26.48 59.5 L 25.443 55.559 C 25.233 54.76 25.306 53.937 25.655 53.165 C 26.005 52.392 26.62 51.695 27.444 51.138 L 31.512 48.387 L 33.9 44.761 C 34.384 44.027 35.117 43.392 36.034 42.915 C 36.948 42.437 38.018 42.133 39.14 42.03 L 44.685 41.52 L 49.587 39.595 Z " fill-rule="evenodd" fill="rgb(195,207,217)" vector-effect="non-scaling-stroke" stroke-width="1" stroke="rgb(0,0,0)" stroke-linejoin="round" stroke-linecap="butt" stroke-miterlimit="1.414"/></g><g opacity="0.6"><path d=" M 73.224 80.176 C 73.519 80.06 73.848 80 74.183 80 C 74.518 80 74.848 80.061 75.142 80.176 L 76.594 80.746 L 78.235 80.897 C 78.567 80.928 78.884 81.018 79.155 81.159 C 79.426 81.3 79.643 81.489 79.786 81.706 L 80.493 82.779 L 81.698 83.594 C 81.942 83.759 82.124 83.965 82.228 84.194 C 82.331 84.423 82.353 84.666 82.291 84.903 L 81.984 86.07 L 82.291 87.236 C 82.353 87.473 82.331 87.716 82.228 87.945 C 82.124 88.174 81.942 88.38 81.698 88.545 L 80.493 89.36 L 79.786 90.433 C 79.643 90.651 79.426 90.839 79.155 90.98 C 78.884 91.121 78.568 91.211 78.235 91.242 L 76.594 91.393 L 75.142 91.963 C 74.848 92.079 74.519 92.139 74.183 92.139 C 73.848 92.139 73.518 92.079 73.224 91.963 L 71.773 91.393 L 70.131 91.242 C 69.799 91.211 69.483 91.121 69.212 90.98 C 68.94 90.839 68.723 90.651 68.58 90.433 L 67.873 89.36 L 66.668 88.545 C 66.425 88.38 66.242 88.174 66.139 87.945 C 66.035 87.716 66.014 87.473 66.076 87.236 L 66.383 86.07 L 66.076 84.903 C 66.014 84.666 66.035 84.423 66.139 84.194 C 66.242 83.965 66.424 83.759 66.668 83.594 L 67.873 82.779 L 68.58 81.706 C 68.723 81.489 68.94 81.3 69.212 81.159 C 69.482 81.018 69.799 80.928 70.131 80.897 L 71.773 80.746 L 73.224 80.176 Z " fill-rule="evenodd" fill="rgb(195,207,217)" vector-effect="non-scaling-stroke" stroke-width="1" stroke="rgb(0,0,0)" stroke-linejoin="round" stroke-linecap="butt" stroke-miterlimit="1.414"/></g><g opacity="0.6"><path d=" M 82.829 93.201 C 82.931 93.16 83.046 93.139 83.163 93.139 C 83.279 93.139 83.394 93.16 83.497 93.201 L 84.003 93.399 L 84.575 93.452 C 84.69 93.463 84.801 93.494 84.895 93.543 C 84.99 93.592 85.065 93.658 85.115 93.734 L 85.362 94.108 L 85.781 94.392 C 85.866 94.449 85.93 94.521 85.966 94.601 C 86.002 94.68 86.01 94.765 85.988 94.848 L 85.881 95.254 L 85.988 95.661 C 86.01 95.743 86.002 95.828 85.966 95.908 C 85.93 95.988 85.866 96.059 85.781 96.117 L 85.362 96.401 L 85.115 96.775 C 85.065 96.851 84.99 96.916 84.895 96.965 C 84.801 97.015 84.691 97.046 84.575 97.057 L 84.003 97.109 L 83.497 97.308 C 83.394 97.348 83.28 97.369 83.163 97.369 C 83.046 97.369 82.931 97.348 82.829 97.308 L 82.323 97.109 L 81.751 97.057 C 81.635 97.046 81.525 97.015 81.43 96.965 C 81.336 96.916 81.26 96.851 81.21 96.775 L 80.964 96.401 L 80.544 96.117 C 80.459 96.059 80.396 95.987 80.36 95.908 C 80.323 95.828 80.316 95.743 80.338 95.661 L 80.445 95.254 L 80.338 94.848 C 80.316 94.765 80.323 94.68 80.36 94.601 C 80.396 94.521 80.459 94.449 80.544 94.392 L 80.964 94.108 L 81.21 93.734 C 81.26 93.658 81.336 93.592 81.43 93.543 C 81.525 93.494 81.635 93.463 81.751 93.452 L 82.323 93.399 L 82.829 93.201 Z " fill-rule="evenodd" fill="rgb(195,207,217)" vector-effect="non-scaling-stroke" stroke-width="1" stroke="rgb(0,0,0)" stroke-linejoin="round" stroke-linecap="butt" stroke-miterlimit="1.414"/></g><g opacity="0.7"><path d=" M 43.4 47.5 C 42.154 47.5 41.091 48.082 40.275 48.906 C 39.83 48.734 39.408 48.5 38.9 48.5 C 36.7 48.5 34.9 50.3 34.9 52.5 C 34.9 53.527 35.318 54.445 35.963 55.156 C 35.923 55.266 35.902 55.383 35.9 55.5 L 35.9 68.5 C 35.9 70.145 37.255 71.5 38.9 71.5 L 50.9 71.5 C 52.545 71.5 53.9 70.145 53.9 68.5 L 53.9 66.5 L 54.9 66.5 C 56.545 66.5 57.9 65.145 57.9 63.5 L 57.9 59.5 C 57.9 57.855 56.545 56.5 54.9 56.5 L 53.9 56.5 L 53.9 55.312 C 53.908 55.24 53.908 55.166 53.9 55.094 C 54.51 54.391 54.9 53.496 54.9 52.5 C 54.9 50.3 53.1 48.5 50.9 48.5 C 50.154 48.5 49.494 48.766 48.9 49.125 C 48.306 48.765 47.646 48.5 46.9 48.5 C 46.642 48.5 46.44 48.578 46.212 48.625 C 45.436 47.973 44.495 47.5 43.4 47.5 Z  M 43.4 49.5 C 44.134 49.5 44.779 49.832 45.244 50.344 L 45.681 50.812 L 46.306 50.625 C 46.53 50.551 46.71 50.5 46.9 50.5 C 47.412 50.5 47.88 50.703 48.244 51.031 L 48.9 51.625 L 49.556 51.031 C 49.923 50.693 50.402 50.503 50.9 50.5 C 52.017 50.5 52.9 51.383 52.9 52.5 C 52.9 53.617 52.017 54.5 50.9 54.5 C 49.79 54.5 48.181 54.031 48.181 54.031 L 46.9 53.656 L 46.9 55 C 46.9 56.402 47.2 57.473 47.463 58.281 C 47.724 59.09 47.9 59.605 47.9 60 C 47.9 60.84 47.24 61.5 46.4 61.5 C 45.56 61.5 44.9 60.84 44.9 60 C 44.9 59.605 45.076 59.059 45.338 58.25 C 45.599 57.441 45.9 56.395 45.9 55 L 45.9 53.219 L 44.4 54.156 C 44.4 54.156 44.22 54.246 43.994 54.344 C 43.805 54.425 43.605 54.477 43.4 54.5 C 42.776 54.5 42.174 54.266 41.712 53.844 L 40.994 53.188 L 40.338 53.875 C 39.777 54.469 38.91 54.659 38.152 54.356 C 37.394 54.053 36.897 53.317 36.9 52.5 C 36.9 51.383 37.783 50.5 38.9 50.5 C 39.306 50.5 39.673 50.637 39.994 50.844 L 40.806 51.344 L 41.369 50.562 C 41.83 49.895 42.59 49.498 43.4 49.5 Z  M 41.087 55.75 C 41.771 56.176 42.537 56.5 43.4 56.5 C 43.505 56.5 43.552 56.45 43.65 56.437 C 43.568 56.824 43.572 57.32 43.462 57.657 C 43.224 58.391 42.9 59.094 42.9 60 C 42.9 61.922 44.478 63.5 46.4 63.5 C 48.322 63.5 49.9 61.922 49.9 60 C 49.9 59.094 49.576 58.387 49.337 57.656 C 49.209 57.258 49.173 56.696 49.087 56.219 C 49.728 56.367 50.017 56.5 50.9 56.5 C 51.244 56.5 51.58 56.426 51.9 56.344 L 51.9 57.188 C 51.842 57.381 51.842 57.588 51.9 57.781 L 51.9 65.312 C 51.873 65.446 51.873 65.585 51.9 65.719 L 51.9 68.5 C 51.9 69.066 51.466 69.5 50.9 69.5 L 38.9 69.5 C 38.334 69.5 37.9 69.066 37.9 68.5 L 37.9 56.344 C 38.22 56.426 38.556 56.5 38.9 56.5 C 39.724 56.5 40.45 56.18 41.088 55.75 L 41.087 55.75 Z  M 53.9 58.5 L 54.9 58.5 C 55.466 58.5 55.9 58.934 55.9 59.5 L 55.9 63.5 C 55.9 64.066 55.466 64.5 54.9 64.5 L 53.9 64.5 L 53.9 58.5 Z " fill="rgb(0,0,0)"/></g><path d=" M 57.9 70.5 C 57.9 69.948 58.587 69.5 59.433 69.5 C 60.28 69.5 60.966 69.948 60.966 70.5 C 60.966 71.052 60.28 71.5 59.433 71.5 C 58.587 71.5 57.9 71.052 57.9 70.5 Z " fill="rgb(72,72,72)"/><path d=" M 67.9 70.5 C 67.9 69.948 68.587 69.5 69.433 69.5 C 70.28 69.5 70.966 69.948 70.966 70.5 C 70.966 71.052 70.28 71.5 69.433 71.5 C 68.587 71.5 67.9 71.052 67.9 70.5 Z " fill="rgb(72,72,72)"/><path d=" M 62.9 70.5 C 62.9 69.948 63.587 69.5 64.433 69.5 C 65.28 69.5 65.966 69.948 65.966 70.5 C 65.966 71.052 65.28 71.5 64.433 71.5 C 63.587 71.5 62.9 71.052 62.9 70.5 Z " fill="rgb(72,72,72)"/></g></svg>